<svg width="21" height="20" viewBox="0 0 21 20" fill="none" xmlns="http://www.w3.org/2000/svg">
<path d="M14.6666 17.0832H6.33329C3.83329 17.0832 2.16663 15.8332 2.16663 12.9165V7.08317C2.16663 4.1665 3.83329 2.9165 6.33329 2.9165H14.6666C17.1666 2.9165 18.8333 4.1665 18.8333 7.08317V12.9165C18.8333 15.8332 17.1666 17.0832 14.6666 17.0832Z" fill="#F1EFF9"/>
<path fill-rule="evenodd" clip-rule="evenodd" d="M3.8228 4.45568C3.28868 4.95165 2.91663 5.76779 2.91663 7.08317V12.9165C2.91663 14.2319 3.28868 15.048 3.8228 15.544C4.36698 16.0493 5.19826 16.3332 6.33329 16.3332H14.6666C15.8017 16.3332 16.6329 16.0493 17.1771 15.544C17.7112 15.048 18.0833 14.2319 18.0833 12.9165V7.08317C18.0833 5.76779 17.7112 4.95165 17.1771 4.45568C16.6329 3.95037 15.8017 3.6665 14.6666 3.6665H6.33329C5.19826 3.6665 4.36698 3.95037 3.8228 4.45568ZM2.80212 3.35649C3.71627 2.50764 4.96832 2.1665 6.33329 2.1665H14.6666C16.0316 2.1665 17.2836 2.50764 18.1978 3.35649C19.122 4.21469 19.5833 5.48189 19.5833 7.08317V12.9165C19.5833 14.5178 19.122 15.785 18.1978 16.6432C17.2836 17.492 16.0316 17.8332 14.6666 17.8332H6.33329C4.96832 17.8332 3.71627 17.492 2.80212 16.6432C1.87791 15.785 1.41663 14.5178 1.41663 12.9165V7.08317C1.41663 5.48189 1.87791 4.21469 2.80212 3.35649Z" fill="#7A58F6"/>
<path fill-rule="evenodd" clip-rule="evenodd" d="M15.2526 7.03177C15.5111 7.35542 15.4583 7.82735 15.1347 8.08585L12.5254 10.1699C11.3937 11.0709 9.59788 11.0709 8.46616 10.1699L8.46431 10.1685L5.86431 8.08512C5.54107 7.82611 5.489 7.3541 5.74801 7.03086C6.00702 6.70761 6.47903 6.65554 6.80227 6.91455L9.40125 8.99707C9.98622 9.46201 11.0061 9.46187 11.5908 8.99666L14.1986 6.91382C14.5222 6.65532 14.9941 6.70812 15.2526 7.03177Z" fill="#7A58F6"/>
</svg>
